PSF_US_stride2.mot
nRows=147
nColumns=3

name PSF_US_stride2.mot
datacolumns 3
datarows 147
range 0.330000 1.060000
endheader
time	soleus_l	med_gas_l
        0.3300000000	       34.7830548943	       37.0029513515	
        0.3350000000	       34.1501425043	       36.9230526720	
        0.3400000000	       33.6358207819	       36.5656347870	
        0.3450000000	       33.2753398496	       36.0561259371	
        0.3500000000	       33.0755070557	       35.5762280580	
        0.3550000000	       32.9249750592	       35.0420447558	
        0.3600000000	       32.7750371431	       34.2743696603	
        0.3650000000	       32.6785726140	       33.5470776290	
        0.3700000000	       32.6460915712	       32.8363258575	
        0.3750000000	       32.6531250303	       32.3499237598	
        0.3800000000	       32.7044159529	       32.0338152651	
        0.3850000000	       32.8046237135	       31.7734860118	
        0.3900000000	       32.9118066889	       31.7420454100	
        0.3950000000	       32.9895245465	       31.7901699858	
        0.4000000000	       33.0101664149	       31.9559124710	
        0.4050000000	       32.9897097314	       32.1228200271	
        0.4100000000	       32.9448579269	       32.2303264370	
        0.4150000000	       32.8842332886	       32.3167809503	
        0.4200000000	       32.8377071636	       32.3419101391	
        0.4250000000	       32.8244642213	       32.3116167922	
        0.4300000000	       32.8429343802	       32.2059292297	
        0.4350000000	       32.8676370586	       32.0478915710	
        0.4400000000	       32.8626487189	       31.8968351642	
        0.4450000000	       32.8368218787	       31.7219998573	
        0.4500000000	       32.7299768390	       31.4602019545	
        0.4550000000	       32.5505060117	       31.1590850888	
        0.4600000000	       32.3079390883	       30.8153140531	
        0.4650000000	       32.0253529115	       30.4362069209	
        0.4700000000	       31.7676638892	       30.0859938870	
        0.4750000000	       31.5676533319	       29.8024438980	
        0.4800000000	       31.3455249417	       29.4646974529	
        0.4850000000	       31.1609483257	       29.1546625657	
        0.4900000000	       31.0361781592	       28.9170604418	
        0.4950000000	       30.9618068619	       28.7604861566	
        0.5000000000	       30.9242659932	       28.6796392784	
        0.5050000000	       30.8695266565	       28.5966473792	
        0.5100000000	       30.7757599215	       28.4999072098	
        0.5150000000	       30.6182746191	       28.3753196947	
        0.5200000000	       30.3723855980	       28.1958959822	
        0.5250000000	       30.0152642006	       27.9462411678	
        0.5300000000	       29.6792924334	       27.7217041794	
        0.5350000000	       29.2930211318	       27.4765658886	
        0.5400000000	       28.7043814683	       27.1305362025	
        0.5450000000	       28.0829410303	       26.8050549647	
        0.5500000000	       27.4384420592	       26.5198291015	
        0.5550000000	       26.7629957896	       26.2955237192	
        0.5600000000	       26.1542011509	       26.1839171327	
        0.5650000000	       25.6705340284	       26.1477069309	
        0.5700000000	       25.0417538913	       26.1982535516	
        0.5750000000	       24.3647740532	       26.3451425719	
        0.5800000000	       23.7162263207	       26.5539149092	
        0.5850000000	       23.1137803024	       26.7538898586	
        0.5900000000	       22.5620162227	       26.8985762535	
        0.5950000000	       22.2146257888	       26.9206527022	
        0.6000000000	       21.9244205377	       26.9048061733	
        0.6050000000	       21.7258128296	       26.7530493460	
        0.6100000000	       21.6875335083	       26.5265366658	
        0.6150000000	       21.8215391897	       26.2900063112	
        0.6200000000	       22.0836875150	       26.0918079976	
        0.6250000000	       22.3690175174	       26.0123627516	
        0.6300000000	       22.6567089418	       25.9869384334	
        0.6350000000	       23.0828133264	       26.0606673888	
        0.6400000000	       23.5226312970	       26.2030985871	
        0.6450000000	       23.9894734841	       26.3764283433	
        0.6500000000	       24.4280842668	       26.5077956982	
        0.6550000000	       24.7879112262	       26.5800754774	
        0.6600000000	       25.2598320466	       26.5800690434	
        0.6650000000	       25.7509961322	       26.5413707458	
        0.6700000000	       26.2063280674	       26.4797854254	
        0.6750000000	       26.6322057365	       26.4654533674	
        0.6800000000	       27.0384722140	       26.5896197792	
        0.6850000000	       27.3342597474	       26.7815855394	
        0.6900000000	       27.6676427755	       27.0999217403	
        0.6950000000	       28.0825596852	       27.6182459818	
        0.7000000000	       28.4748224739	       28.1894899177	
        0.7050000000	       28.7705214689	       28.6490206511	
        0.7100000000	       29.1199465720	       29.1914728153	
        0.7150000000	       29.3844150814	       29.5605483552	
        0.7200000000	       29.5655474133	       29.7601891338	
        0.7250000000	       29.8224512807	       29.9365674521	
        0.7300000000	       30.1113596781	       29.9685708938	
        0.7350000000	       30.4587538095	       29.9340168919	
        0.7400000000	       30.8813315815	       29.7998469062	
        0.7450000000	       31.3370261144	       29.6272450021	
        0.7500000000	       31.7116697084	       29.4836533696	
        0.7550000000	       32.1919685025	       29.3129372892	
        0.7600000000	       32.7375681434	       29.1453319831	
        0.7650000000	       33.2475443956	       29.0197385391	
        0.7700000000	       33.7238749192	       28.9290415283	
        0.7750000000	       34.0435243205	       28.8791642869	
        0.7800000000	       34.3789341326	       28.8282499329	
        0.7850000000	       34.7773622844	       28.7630306083	
        0.7900000000	       35.1622143141	       28.6882925737	
        0.7950000000	       35.5705568523	       28.6026666164	
        0.8000000000	       36.0006580897	       28.5172784535	
        0.8050000000	       36.3293018161	       28.4633965979	
        0.8100000000	       36.5770253636	       28.4376899971	
        0.8150000000	       36.8194224636	       28.4459561464	
        0.8200000000	       36.9449517972	       28.4944725724	
        0.8250000000	       37.0053504009	       28.5850055806	
        0.8300000000	       37.0727093719	       28.6944316125	
        0.8350000000	       37.2227749547	       28.7928625810	
        0.8400000000	       37.4282076171	       28.8508798193	
        0.8450000000	       37.7629974772	       28.8905006739	
        0.8500000000	       38.2391307448	       28.9019297559	
        0.8550000000	       38.7113264854	       28.8841612512	
        0.8600000000	       39.0392631244	       28.8410257384	
        0.8650000000	       39.1686097164	       28.7841884054	
        0.8700000000	       39.1323575247	       28.7315366253	
        0.8750000000	       38.9990603086	       28.6723981709	
        0.8800000000	       38.6993244628	       28.5883084054	
        0.8850000000	       38.3659130680	       28.5132151528	
        0.8900000000	       38.0156291763	       28.5081849896	
        0.8950000000	       37.6748787723	       28.5558364171	
        0.9000000000	       37.3886050498	       28.7307034882	
        0.9050000000	       37.1709592305	       28.9760562777	
        0.9100000000	       36.9190442249	       29.4041846081	
        0.9150000000	       36.6964197856	       29.9861680034	
        0.9200000000	       36.5378626132	       30.6382630925	
        0.9250000000	       36.4517612038	       31.2487793032	
        0.9300000000	       36.4226512629	       31.6657445421	
        0.9350000000	       36.4268491554	       32.1347526257	
        0.9400000000	       36.4631817846	       32.5994741857	
        0.9450000000	       36.5270368734	       32.9782099783	
        0.9500000000	       36.6078486193	       33.3350203738	
        0.9550000000	       36.7051135554	       33.7048798894	
        0.9600000000	       36.7939246045	       34.0202445597	
        0.9650000000	       36.8901438454	       34.3556822775	
        0.9700000000	       37.0214426170	       34.8284573595	
        0.9750000000	       37.1347852104	       35.3002225578	
        0.9800000000	       37.2008725414	       35.7734088473	
        0.9850000000	       37.1985050280	       36.1662661864	
        0.9900000000	       37.1482957803	       36.4695093457	
        0.9950000000	       37.0526964491	       36.6984336531	
        1.0000000000	       36.8879399134	       36.9539042796	
        1.0050000000	       36.6460308343	       37.2126280227	
        1.0100000000	       36.3666968946	       37.4465229900	
        1.0150000000	       36.0429536173	       37.6774634308	
        1.0200000000	       35.6714526806	       37.8978920568	
        1.0250000000	       35.3651914551	       38.0387769053	
        1.0300000000	       35.0390956356	       38.1350399089	
        1.0350000000	       34.5906684845	       38.1945093175	
        1.0400000000	       34.1845683559	       38.1476342899	
        1.0450000000	       33.8322745476	       38.0203618309	
        1.0500000000	       33.6115389147	       37.8658678778	
        1.0550000000	       33.4747086364	       37.7130131148	
        1.0600000000	       33.3795401722	       37.5332049751	
